# This file uses centimeters as units for non-parametric coordinates.

mtllib Box.mtl
g default
v -0.500000 -0.500000 0.500000
v 0.500000 -0.500000 0.500000
v -0.500000 0.500000 0.500000
v 0.500000 0.500000 0.500000
v -0.500000 0.500000 -0.500000
v 0.500000 0.500000 -0.500000
v -0.500000 -0.500000 -0.500000
v 0.500000 -0.500000 -0.500000
vt 0.250032 0.000000
vt 0.750032 0.000000
vt 0.250032 1.000000
vt 0.750032 1.000000
vt -0.249968 1.000000
vt -0.249968 0.000000
vt 1.250032 0.000000
vt 1.750032 1.000000
vt 2.750032 1.000000
vt 1.250032 1.000000
vt 1.750032 0.000000
vn 0.000000 0.000000 1.000000
vn 0.000000 0.000000 1.000000
vn 0.000000 0.000000 1.000000
vn 0.000000 0.000000 1.000000
vn 0.000000 1.000000 0.000000
vn 0.000000 1.000000 0.000000
vn 0.000000 1.000000 0.000000
vn 0.000000 1.000000 0.000000
vn 0.000000 0.000000 -1.000000
vn 0.000000 0.000000 -1.000000
vn 0.000000 0.000000 -1.000000
vn 0.000000 0.000000 -1.000000
vn 0.000000 -1.000000 0.000000
vn 0.000000 -1.000000 0.000000
vn 0.000000 -1.000000 0.000000
vn 0.000000 -1.000000 0.000000
vn 1.000000 0.000000 0.000000
vn 1.000000 0.000000 0.000000
vn 1.000000 0.000000 0.000000
vn 1.000000 0.000000 0.000000
vn -1.000000 0.000000 0.000000
vn -1.000000 0.000000 0.000000
vn -1.000000 0.000000 0.000000
vn -1.000000 0.000000 0.000000
s 1
g pCube1
usemtl initialShadingGroup
f 1/1/1 2/2/2 3/3/3
f 3/3/3 2/2/2 4/4/4
s 2
f 3/3/5 4/4/6 5/5/7
f 5/8/7 4/9/6 6/10/8
s 3
f 5/8/9 6/10/10 7/11/11
f 7/11/11 6/10/10 8/7/12
s 4
f 7/11/13 8/7/14 1/1/15
f 1/1/15 8/7/14 2/2/16
s 5
f 2/2/17 8/7/18 4/4/19
f 4/4/19 8/7/18 6/10/20
s 6
f 7/6/21 1/1/22 5/5/23
f 5/5/23 1/1/22 3/3/24
